<svg width="50" height="50" viewBox="0 0 50 50" fill="none" xmlns="http://www.w3.org/2000/svg">

    <!-- experience -->
    <g id="calendar">
        <g id="gg:calendar-dates">
            <g id="Group">
                <path id="Vector" d="M5.33341 6.5C5.1566 6.5 4.98703 6.44732 4.86201 6.35355C4.73699 6.25979 4.66675 6.13261 4.66675 6C4.66675 5.86739 4.73699 5.74021 4.86201 5.64645C4.98703 5.55268 5.1566 5.5 5.33341 5.5C5.51023 5.5 5.67979 5.55268 5.80482 5.64645C5.92984 5.74021 6.00008 5.86739 6.00008 6C6.00008 6.13261 5.92984 6.25979 5.80482 6.35355C5.67979 6.44732 5.51023 6.5 5.33341 6.5ZM5.33341 8.5C5.1566 8.5 4.98703 8.44732 4.86201 8.35355C4.73699 8.25979 4.66675 8.13261 4.66675 8C4.66675 7.86739 4.73699 7.74021 4.86201 7.64645C4.98703 7.55268 5.1566 7.5 5.33341 7.5C5.51023 7.5 5.67979 7.55268 5.80482 7.64645C5.92984 7.74021 6.00008 7.86739 6.00008 8C6.00008 8.13261 5.92984 8.25979 5.80482 8.35355C5.67979 8.44732 5.51023 8.5 5.33341 8.5ZM7.33341 8C7.33341 8.13261 7.40365 8.25979 7.52868 8.35355C7.6537 8.44732 7.82327 8.5 8.00008 8.5C8.17689 8.5 8.34646 8.44732 8.47149 8.35355C8.59651 8.25979 8.66675 8.13261 8.66675 8C8.66675 7.86739 8.59651 7.74021 8.47149 7.64645C8.34646 7.55268 8.17689 7.5 8.00008 7.5C7.82327 7.5 7.6537 7.55268 7.52868 7.64645C7.40365 7.74021 7.33341 7.86739 7.33341 8ZM10.6667 8.5C10.4899 8.5 10.3204 8.44732 10.1953 8.35355C10.0703 8.25979 10.0001 8.13261 10.0001 8C10.0001 7.86739 10.0703 7.74021 10.1953 7.64645C10.3204 7.55268 10.4899 7.5 10.6667 7.5C10.8436 7.5 11.0131 7.55268 11.1382 7.64645C11.2632 7.74021 11.3334 7.86739 11.3334 8C11.3334 8.13261 11.2632 8.25979 11.1382 8.35355C11.0131 8.44732 10.8436 8.5 10.6667 8.5ZM7.33341 6C7.33341 6.13261 7.40365 6.25979 7.52868 6.35355C7.6537 6.44732 7.82327 6.5 8.00008 6.5C8.17689 6.5 8.34646 6.44732 8.47149 6.35355C8.59651 6.25979 8.66675 6.13261 8.66675 6C8.66675 5.86739 8.59651 5.74021 8.47149 5.64645C8.34646 5.55268 8.17689 5.5 8.00008 5.5C7.82327 5.5 7.6537 5.55268 7.52868 5.64645C7.40365 5.74021 7.33341 5.86739 7.33341 6ZM10.6667 6.5C10.4899 6.5 10.3204 6.44732 10.1953 6.35355C10.0703 6.25979 10.0001 6.13261 10.0001 6C10.0001 5.86739 10.0703 5.74021 10.1953 5.64645C10.3204 5.55268 10.4899 5.5 10.6667 5.5C10.8436 5.5 11.0131 5.55268 11.1382 5.64645C11.2632 5.74021 11.3334 5.86739 11.3334 6C11.3334 6.13261 11.2632 6.25979 11.1382 6.35355C11.0131 6.44732 10.8436 6.5 10.6667 6.5ZM5.33341 3.5C5.1566 3.5 4.98703 3.55268 4.86201 3.64645C4.73699 3.74021 4.66675 3.86739 4.66675 4C4.66675 4.13261 4.73699 4.25979 4.86201 4.35355C4.98703 4.44732 5.1566 4.5 5.33341 4.5H10.6667C10.8436 4.5 11.0131 4.44732 11.1382 4.35355C11.2632 4.25979 11.3334 4.13261 11.3334 4C11.3334 3.86739 11.2632 3.74021 11.1382 3.64645C11.0131 3.55268 10.8436 3.5 10.6667 3.5H5.33341Z" fill="#A7A7A7"/>
                <path id="Vector_2" fill-rule="evenodd" clip-rule="evenodd" d="M4 1.5C3.46957 1.5 2.96086 1.65804 2.58579 1.93934C2.21071 2.22064 2 2.60218 2 3V9C2 9.39782 2.21071 9.77936 2.58579 10.0607C2.96086 10.342 3.46957 10.5 4 10.5H12C12.5304 10.5 13.0391 10.342 13.4142 10.0607C13.7893 9.77936 14 9.39782 14 9V3C14 2.60218 13.7893 2.22064 13.4142 1.93934C13.0391 1.65804 12.5304 1.5 12 1.5H4ZM12 2.5H4C3.82319 2.5 3.65362 2.55268 3.5286 2.64645C3.40357 2.74021 3.33333 2.86739 3.33333 3V9C3.33333 9.13261 3.40357 9.25979 3.5286 9.35355C3.65362 9.44732 3.82319 9.5 4 9.5H12C12.1768 9.5 12.3464 9.44732 12.4714 9.35355C12.5964 9.25979 12.6667 9.13261 12.6667 9V3C12.6667 2.86739 12.5964 2.74021 12.4714 2.64645C12.3464 2.55268 12.1768 2.5 12 2.5Z" fill="#A7A7A7"/>
            </g>
        </g>
    </g>

    <g id="location">
        <g id="carbon:location">
            <path id="Vector" d="M8 6.75C7.50555 6.75 7.0222 6.64003 6.61108 6.43401C6.19995 6.22798 5.87952 5.93514 5.6903 5.59253C5.50108 5.24992 5.45157 4.87292 5.54804 4.50921C5.6445 4.14549 5.8826 3.8114 6.23223 3.54918C6.58187 3.28695 7.02732 3.10838 7.51228 3.03603C7.99723 2.96368 8.4999 3.00081 8.95671 3.14273C9.41353 3.28464 9.80397 3.52496 10.0787 3.83331C10.3534 4.14165 10.5 4.50416 10.5 4.875C10.4992 5.3721 10.2356 5.84867 9.76689 6.20017C9.29822 6.55167 8.6628 6.74941 8 6.75ZM8 3.75C7.70333 3.75 7.41332 3.81598 7.16665 3.9396C6.91997 4.06321 6.72771 4.23892 6.61418 4.44448C6.50065 4.65005 6.47095 4.87625 6.52882 5.09448C6.5867 5.31271 6.72956 5.51316 6.93934 5.6705C7.14912 5.82783 7.41639 5.93498 7.70737 5.97838C7.99834 6.02179 8.29994 5.99951 8.57403 5.91437C8.84812 5.82922 9.08238 5.68502 9.24721 5.50002C9.41203 5.31501 9.5 5.09751 9.5 4.875C9.4996 4.57672 9.34144 4.29075 9.06022 4.07983C8.779 3.86892 8.3977 3.7503 8 3.75Z" fill="#A7A7A7"/>
            <path id="Vector_2" d="M8.00001 11.25L3.78201 7.51912C3.7234 7.4631 3.66539 7.40673 3.60801 7.35C2.8875 6.63817 2.49826 5.76871 2.50001 4.875C2.50001 3.78098 3.07947 2.73177 4.11092 1.95818C5.14237 1.1846 6.54132 0.75 8.00001 0.75C9.4587 0.75 10.8576 1.1846 11.8891 1.95818C12.9205 2.73177 13.5 3.78098 13.5 4.875C13.5018 5.7683 13.1127 6.63737 12.3925 7.34888L12.392 7.35C12.392 7.35 12.242 7.49775 12.2195 7.51763L8.00001 11.25ZM4.40601 6.89813C4.40701 6.89813 4.52301 7.01362 4.54951 7.03837L8.00001 10.0905L11.455 7.03425C11.477 7.01362 11.594 6.89738 11.5945 6.897C12.1831 6.31542 12.5012 5.60514 12.5 4.875C12.5 3.97989 12.0259 3.12145 11.182 2.48851C10.3381 1.85558 9.19348 1.5 8.00001 1.5C6.80653 1.5 5.66194 1.85558 4.81803 2.48851C3.97411 3.12145 3.50001 3.97989 3.50001 4.875C3.49896 5.60559 3.81739 6.31628 4.40651 6.89813H4.40601Z" fill="#A7A7A7"/>
        </g>
    </g>

    <g id="gitHubExperience">
        <g id="akar-icons:github-fill">
            <path id="Vector" fill-rule="evenodd" clip-rule="evenodd" d="M44 0C19.69 0 0 19.69 0 44C0 63.47 12.595 79.915 30.085 85.745C32.285 86.13 33.11 84.81 33.11 83.655C33.11 82.61 33.055 79.145 33.055 75.46C22 77.495 19.14 72.765 18.26 70.29C17.765 69.025 15.62 65.12 13.75 64.075C12.21 63.25 10.01 61.215 13.695 61.16C17.16 61.105 19.635 64.35 20.46 65.67C24.42 72.325 30.745 70.455 33.275 69.3C33.66 66.44 34.815 64.515 36.08 63.415C26.29 62.315 16.06 58.52 16.06 41.69C16.06 36.905 17.765 32.945 20.57 29.865C20.13 28.765 18.59 24.255 21.01 18.205C21.01 18.205 24.695 17.05 33.11 22.715C36.63 21.725 40.37 21.23 44.11 21.23C47.85 21.23 51.59 21.725 55.11 22.715C63.525 16.995 67.21 18.205 67.21 18.205C69.63 24.255 68.09 28.765 67.65 29.865C70.455 32.945 72.16 36.85 72.16 41.69C72.16 58.575 61.875 62.315 52.085 63.415C53.68 64.79 55.055 67.43 55.055 71.555C55.055 77.44 55 82.17 55 83.655C55 84.81 55.825 86.185 58.025 85.745C66.7597 82.796 74.3497 77.1822 79.7268 69.6937C85.1039 62.2052 87.9974 53.219 88 44C88 19.69 68.31 0 44 0Z" fill="black"/>
        </g>
    </g>
</svg>
