<svg width="114" height="105" viewBox="0 0 114 105" fill="none" xmlns="http://www.w3.org/2000/svg">
    <path d="M23.2941 29.9496C26.9698 29.9496 29.9496 26.9698 29.9496 23.2941C29.9496 19.6184 26.9698 16.6386 23.2941 16.6386C19.6184 16.6386 16.6386 19.6184 16.6386 23.2941C16.6386 26.9698 19.6184 29.9496 23.2941 29.9496Z"
          fill="black"/>
    <path d="M89.8487 0H23.2941C10.4324 0 0 10.4324 0 23.2941C0 36.1558 10.4324 46.5882 23.2941 46.5882H89.8487C102.71 46.5882 113.143 36.1558 113.143 23.2941C113.143 10.4324 102.71 0 89.8487 0ZM23.2941 39.9328C14.1096 39.9328 6.65546 32.4787 6.65546 23.2941C6.65546 14.1096 14.1096 6.65546 23.2941 6.65546C32.4787 6.65546 39.9328 14.1096 39.9328 23.2941C39.9328 32.4787 32.4787 39.9328 23.2941 39.9328ZM89.8487 39.9328C80.6642 39.9328 73.2101 32.4787 73.2101 23.2941C73.2101 14.1096 80.6642 6.65546 89.8487 6.65546C99.0333 6.65546 106.487 14.1096 106.487 23.2941C106.487 32.4787 99.0333 39.9328 89.8487 39.9328Z"
          fill="black"/>
    <path d="M89.8487 29.9496C93.5244 29.9496 96.5042 26.9698 96.5042 23.2941C96.5042 19.6184 93.5244 16.6386 89.8487 16.6386C86.173 16.6386 83.1933 19.6184 83.1933 23.2941C83.1933 26.9698 86.173 29.9496 89.8487 29.9496Z"
          fill="black"/>
    <path d="M86.521 74.8739H26.6219C18.3691 74.8739 11.6471 81.5959 11.6471 89.8487C11.6471 98.1015 18.3691 104.824 26.6219 104.824H86.521C94.7738 104.824 101.496 98.1015 101.496 89.8487C101.496 81.5959 94.7738 74.8739 86.521 74.8739ZM21.6303 98.4842C19.1012 97.02 17.2876 94.4909 16.7884 91.5126H21.6303V98.4842ZM21.6303 88.1849H16.7884C17.2876 85.2065 19.1012 82.6775 21.6303 81.2133V88.1849ZM34.9412 99.8319H26.6219C26.0561 99.8319 25.5071 99.7654 24.958 99.6822V91.5126H34.9412V99.8319ZM34.9412 88.1849H24.958V80.0153C25.5071 79.9321 26.0561 79.8655 26.6219 79.8655H34.9412V88.1849ZM48.2521 99.8319H38.2689V91.5126H48.2521V99.8319ZM48.2521 88.1849H38.2689V79.8655H48.2521V88.1849ZM61.563 99.8319H51.5798V91.5126H61.563V99.8319ZM61.563 88.1849H51.5798V79.8655H61.563V88.1849ZM74.874 99.8319H64.8908V91.5126H74.874V99.8319ZM74.874 88.1849H64.8908V79.8655H74.874V88.1849ZM88.1849 99.6822C87.6358 99.7654 87.0867 99.8319 86.521 99.8319H78.2017V91.5126H88.1849V99.6822ZM88.1849 88.1849H78.2017V79.8655H86.521C87.0867 79.8655 87.6358 79.9321 88.1849 80.0153V88.1849ZM91.5126 98.4842V91.5126H96.3545C95.8553 94.4909 94.0417 97.02 91.5126 98.4842ZM91.5126 88.1849V81.2133C94.0417 82.6775 95.8553 85.2065 96.3545 88.1849H91.5126Z"
          fill="black"/>
</svg>
