<svg width="49" height="49" viewBox="0 0 49 49" fill="none" xmlns="http://www.w3.org/2000/svg">
<g id="logo">
<path id="Ellipse 1" d="M48.0001 24.5C48.0001 29.9368 46.1149 35.2055 42.6658 39.4082C39.2167 43.611 34.4171 46.4878 29.0847 47.5485C23.7523 48.6091 18.2171 47.7881 13.4222 45.2252C8.62737 42.6622 4.86949 38.5161 2.78889 33.4931C0.7083 28.4701 0.433729 22.8811 2.01196 17.6783C3.5902 12.4756 6.92358 7.98102 11.4442 4.96047C15.9647 1.93991 21.3928 0.580255 26.8035 1.11316C32.2141 1.64606 37.2726 4.03856 41.1171 7.88299L38.5486 10.4515C35.2984 7.20129 31.0218 5.1786 26.4474 4.72807C21.8731 4.27754 17.284 5.42703 13.4622 7.9807C9.64038 10.5344 6.82224 14.3342 5.48795 18.7327C4.15367 23.1313 4.3858 27.8564 6.14479 32.103C7.90379 36.3496 11.0808 39.8549 15.1345 42.0217C19.1883 44.1884 23.8679 44.8826 28.376 43.9858C32.8842 43.0891 36.942 40.657 39.8579 37.1039C42.7739 33.5508 44.3677 29.0965 44.3677 24.5H48.0001Z" fill="white"/>
<path id="Ellipse 2" d="M16.0158 39.8057C12.4747 37.8429 9.72376 34.7129 8.23168 30.9492C6.73961 27.1854 6.59872 23.0208 7.83303 19.1648C9.06734 15.3088 11.6005 12.0001 15.0008 9.8024C18.4012 7.60473 22.4583 6.65406 26.481 7.11239C30.5037 7.57072 34.243 9.40968 37.0619 12.3159C39.8807 15.2222 41.6046 19.0159 41.9399 23.0508C42.2751 27.0856 41.201 31.1118 38.9005 34.4435C36.6 37.7751 33.2155 40.206 29.3236 41.322L28.578 38.7218C31.8683 37.7783 34.7297 35.7231 36.6746 32.9065C38.6195 30.0898 39.5276 26.6859 39.2442 23.2747C38.9607 19.8636 37.5033 16.6563 35.1202 14.1992C32.737 11.7422 29.5757 10.1875 26.1748 9.79998C22.7739 9.4125 19.3439 10.2162 16.4691 12.0742C13.5943 13.9322 11.4528 16.7295 10.4092 19.9894C9.36572 23.2494 9.48483 26.7703 10.7463 29.9523C12.0077 33.1343 14.3334 35.7805 17.3272 37.4399L16.0158 39.8057Z" fill="white"/>
<path id="Ellipse 3" d="M24.5001 12C27.392 12 30.1945 13.0027 32.43 14.8374C34.6655 16.672 36.1957 19.225 36.7599 22.0614C37.3241 24.8977 36.8873 27.842 35.5241 30.3925C34.1608 32.9429 31.9554 34.9418 29.2836 36.0485C26.6118 37.1552 23.6389 37.3012 20.8715 36.4618C18.1041 35.6223 15.7134 33.8492 14.1067 31.4446C12.5 29.0401 11.7768 26.1528 12.0603 23.2748C12.3437 20.3968 13.6163 17.7061 15.6612 15.6612L17.0274 17.0274C15.2986 18.7562 14.2227 21.031 13.9831 23.4642C13.7434 25.8973 14.3549 28.3383 15.7132 30.3712C17.0715 32.4041 19.0927 33.9031 21.4324 34.6128C23.772 35.3225 26.2854 35.1991 28.5442 34.2634C30.803 33.3278 32.6676 31.6379 33.8201 29.4817C34.9726 27.3254 35.3419 24.8363 34.8649 22.4383C34.3879 20.0404 33.0942 17.882 31.2043 16.3309C29.3143 14.7799 26.945 13.9321 24.5001 13.9321L24.5001 12Z" fill="white"/>
<path id="Ellipse 4" d="M17.0301 20.4442C17.9684 18.716 19.477 17.3666 21.2987 16.626C23.1204 15.8853 25.1426 15.7993 27.0206 16.3824C28.8987 16.9656 30.5165 18.1819 31.5983 19.8241C32.6801 21.4663 33.159 23.4328 32.9535 25.3886C32.7479 27.3443 31.8706 29.1683 30.471 30.5497C29.0714 31.9311 27.2361 32.7845 25.2778 32.9644C23.3195 33.1444 21.3594 32.6397 19.7315 31.5365C18.1036 30.4333 16.9086 28.7998 16.3501 26.9142L17.7273 26.5063C18.1914 28.0732 19.1845 29.4307 20.5373 30.3475C21.8901 31.2643 23.519 31.6836 25.1464 31.5341C26.7737 31.3846 28.2989 30.6754 29.462 29.5274C30.6251 28.3794 31.3542 26.8637 31.525 25.2384C31.6958 23.6132 31.2978 21.979 30.3988 20.6143C29.4998 19.2495 28.1554 18.2388 26.5947 17.7542C25.034 17.2695 23.3535 17.3411 21.8397 17.9566C20.3258 18.5721 19.0721 19.6934 18.2924 21.1296L17.0301 20.4442Z" fill="white"/>
<path id="Ellipse 5" d="M28.2197 27.0327C27.6337 27.8933 26.7675 28.524 25.7687 28.8175C24.7698 29.1111 23.7001 29.0491 22.7417 28.6423C21.7834 28.2356 20.9958 27.5091 20.513 26.5866C20.0303 25.6642 19.8823 24.603 20.0943 23.5837C20.3063 22.5644 20.8652 21.6502 21.6757 20.9968C22.4862 20.3433 23.4982 19.9912 24.5393 20.0002C25.5803 20.0093 26.586 20.3791 27.385 21.0466C28.184 21.714 28.7269 22.6379 28.921 23.6607L28.0934 23.8178C27.9356 22.9865 27.4944 22.2356 26.845 21.6931C26.1955 21.1505 25.3781 20.85 24.5319 20.8426C23.6858 20.8352 22.8632 21.1215 22.2044 21.6526C21.5456 22.1837 21.0914 22.9268 20.9191 23.7552C20.7467 24.5837 20.867 25.4463 21.2594 26.196C21.6517 26.9458 22.2919 27.5363 23.0709 27.8669C23.8498 28.1976 24.7193 28.2479 25.5312 28.0093C26.3431 27.7708 27.0471 27.2581 27.5234 26.5586L28.2197 27.0327Z" fill="white"/>
<path id="Ellipse 6" d="M23.7068 22.1292C24.2553 21.9457 24.8504 21.958 25.3909 22.1641C25.9313 22.3702 26.3835 22.7573 26.6705 23.2595C26.9575 23.7616 27.0615 24.3477 26.9648 24.918C26.8681 25.4882 26.5767 26.0073 26.1402 26.3868C25.7037 26.7662 25.1491 26.9826 24.5709 26.999C23.9928 27.0154 23.4268 26.8308 22.9695 26.4767C22.5122 26.1226 22.1918 25.6209 22.0629 25.0571C21.934 24.4932 22.0046 23.9021 22.2627 23.3845L23.1394 23.8216C22.9825 24.1364 22.9395 24.4959 23.0179 24.8388C23.0963 25.1817 23.2911 25.4868 23.5693 25.7021C23.8474 25.9174 24.1916 26.0297 24.5431 26.0197C24.8947 26.0097 25.232 25.8782 25.4975 25.6474C25.7629 25.4166 25.9402 25.101 25.999 24.7542C26.0578 24.4074 25.9945 24.051 25.82 23.7456C25.6454 23.4402 25.3704 23.2048 25.0418 23.0795C24.7131 22.9541 24.3512 22.9466 24.0176 23.0582L23.7068 22.1292Z" fill="white"/>
<circle id="Ellipse 7" cx="24.5001" cy="24.5" r="0.5" transform="rotate(-180 24.5001 24.5)" fill="white"/>
</g>
</svg>
